<?xml version="1.0" encoding="UTF-8"?>
<svg xmlns="http://www.w3.org/2000/svg" xmlns:xlink="http://www.w3.org/1999/xlink" width="24px" height="24px" viewBox="0 0 24 24" version="1.1">
<g id="surface1">
<path style=" stroke:none;fill-rule:nonzero;fill:rgb(0%,0%,0%);fill-opacity:1;" d="M 23.605469 13.632812 C 23.589844 12.210938 22.933594 5.484375 22.617188 4.433594 C 22.414062 3.761719 21.984375 2.53125 21.183594 1.78125 C 20.160156 0.820312 19.328125 0.644531 18.261719 0.621094 C 17.523438 0.601562 5.582031 2.492188 4.136719 3.160156 C 3.058594 3.65625 2.210938 4.292969 1.546875 5.113281 C 0.464844 6.449219 0.257812 7.746094 0.429688 10.027344 C 0.585938 12.089844 1.359375 18.953125 1.746094 20.375 C 2.171875 21.941406 2.957031 23.144531 4.253906 23.316406 C 8.203125 23.847656 9.136719 21.136719 18.324219 21.160156 C 21.109375 21.167969 22.492188 19.648438 23.070312 18.320312 C 23.746094 16.765625 23.617188 14.714844 23.605469 13.632812 Z M 9.402344 8.011719 C 9.546875 7.882812 9.910156 8.03125 10.03125 8.082031 C 10.746094 8.363281 14.324219 9.917969 15.4375 10.617188 C 15.472656 10.640625 15.507812 10.660156 15.542969 10.679688 C 15.699219 10.761719 15.917969 10.875 15.925781 11.207031 C 15.925781 11.523438 15.734375 11.667969 15.578125 11.789062 C 15.546875 11.808594 15.515625 11.832031 15.488281 11.855469 C 15.257812 12.046875 15.027344 12.242188 14.796875 12.4375 C 14.265625 12.890625 11.167969 15.523438 11.167969 15.523438 C 10.90625 15.773438 10.410156 16.164062 10.222656 16.042969 C 10.03125 15.917969 9.964844 15.066406 9.917969 14.652344 L 9.910156 14.5625 C 9.851562 14.066406 9.40625 9.34375 9.355469 8.824219 C 9.339844 8.675781 9.265625 8.136719 9.402344 8.011719 Z M 9.402344 8.011719 "/>
<path style=" stroke:none;fill-rule:nonzero;fill:rgb(0%,0%,0%);fill-opacity:1;" d="M 23.988281 13.894531 C 23.988281 13.765625 23.984375 13.648438 23.984375 13.542969 C 23.96875 12.164062 23.335938 5.5625 22.984375 4.382812 C 22.574219 3.015625 22.011719 1.992188 21.308594 1.335938 C 20.164062 0.261719 19.195312 0.03125 17.996094 0 L 17.964844 0 C 17.457031 0 14.121094 0.511719 11.324219 0.984375 C 8.53125 1.457031 5.019531 2.105469 4.183594 2.492188 C 3.03125 3.019531 2.117188 3.714844 1.386719 4.613281 C 0.0507812 6.265625 -0.113281 7.984375 0.0546875 10.222656 C 0.183594 11.957031 0.929688 18.789062 1.355469 20.355469 C 1.933594 22.464844 3.050781 23.730469 4.511719 23.925781 C 4.859375 23.972656 5.207031 24 5.554688 24 C 6.835938 24 7.851562 23.660156 9.023438 23.265625 C 10.875 22.644531 13.171875 21.875 17.917969 21.875 L 18.058594 21.875 C 19.21875 21.875 22.066406 21.554688 23.359375 18.574219 C 24.054688 16.984375 24.011719 15.050781 23.988281 13.894531 Z M 17.917969 20.734375 C 10.039062 20.734375 8.585938 22.859375 5.558594 22.859375 C 5.242188 22.855469 4.925781 22.835938 4.613281 22.792969 C 3.375 22.628906 2.628906 21.480469 2.21875 19.984375 C 1.851562 18.628906 1.113281 12.082031 0.964844 10.113281 C 0.796875 7.9375 0.996094 6.695312 2.03125 5.421875 C 2.660156 4.640625 3.46875 4.03125 4.503906 3.558594 C 5.871094 2.925781 17.160156 1.136719 17.964844 1.136719 L 17.976562 1.136719 C 18.992188 1.160156 19.789062 1.328125 20.765625 2.246094 C 21.527344 2.960938 21.9375 4.132812 22.132812 4.78125 C 22.433594 5.777344 23.058594 12.199219 23.074219 13.554688 C 23.085938 14.585938 23.207031 16.542969 22.5625 18.027344 C 22.015625 19.289062 20.699219 20.734375 18.058594 20.734375 Z M 17.917969 20.734375 "/>
<path style=" stroke:none;fill-rule:nonzero;fill:rgb(0%,0%,0%);fill-opacity:1;" d="M 16.230469 10.53125 C 16.1875 10.507812 16.148438 10.484375 16.109375 10.460938 C 14.792969 9.636719 10.554688 7.789062 9.710938 7.453125 C 9.601562 7.410156 9.355469 7.308594 9.160156 7.308594 C 9.089844 7.300781 9.019531 7.324219 8.960938 7.371094 C 8.800781 7.515625 8.886719 8.15625 8.90625 8.328125 C 8.964844 8.945312 9.496094 14.542969 9.558594 15.128906 L 9.570312 15.238281 C 9.625 15.726562 9.699219 16.734375 9.925781 16.882812 C 9.960938 16.902344 9.996094 16.914062 10.03125 16.914062 C 10.300781 16.914062 10.777344 16.527344 11.050781 16.269531 L 15.347656 12.617188 C 15.621094 12.378906 15.890625 12.152344 16.167969 11.925781 C 16.199219 11.898438 16.234375 11.871094 16.269531 11.84375 C 16.457031 11.703125 16.6875 11.53125 16.683594 11.15625 C 16.675781 10.765625 16.417969 10.628906 16.230469 10.53125 Z M 15.574219 11.789062 C 15.542969 11.808594 15.515625 11.832031 15.484375 11.855469 C 15.253906 12.046875 15.023438 12.242188 14.796875 12.441406 C 14.265625 12.894531 11.167969 15.527344 11.167969 15.527344 C 10.902344 15.773438 10.40625 16.167969 10.21875 16.042969 C 10.03125 15.917969 9.964844 15.066406 9.917969 14.652344 L 9.910156 14.5625 C 9.851562 14.066406 9.40625 9.34375 9.355469 8.824219 C 9.339844 8.675781 9.265625 8.136719 9.402344 8.011719 C 9.546875 7.882812 9.910156 8.03125 10.035156 8.078125 C 10.746094 8.359375 14.324219 9.917969 15.4375 10.617188 C 15.472656 10.640625 15.507812 10.660156 15.542969 10.675781 C 15.703125 10.761719 15.921875 10.875 15.925781 11.207031 C 15.925781 11.527344 15.730469 11.671875 15.574219 11.789062 Z M 15.574219 11.789062 "/>
</g>
</svg>
