<svg xmlns="http://www.w3.org/2000/svg"  viewBox="0 0 50 50" width="24px" height="24px"><path d="M 25 4.7265625 C 24.309 4.7265625 23.619 4.9047188 23 5.2617188 L 8.90625 13.398438 C 7.66825 14.112438 6.90625 15.434281 6.90625 16.863281 L 6.90625 33.136719 C 6.90625 34.565719 7.66825 35.885609 8.90625 36.599609 L 23 44.738281 C 23.619 45.095281 24.309 45.273438 25 45.273438 C 25.691 45.273438 26.381 45.095281 27 44.738281 L 41.09375 36.601562 C 42.33175 35.887563 43.09375 34.565719 43.09375 33.136719 L 43.09375 16.863281 C 43.09375 15.434281 42.33175 14.113438 41.09375 13.398438 L 27 5.2617188 C 26.381 4.9047187 25.691 4.7265625 25 4.7265625 z M 24.625 11.339844 C 25.15675 11.339844 25.688109 11.480672 26.162109 11.763672 L 35.037109 17.064453 C 35.939109 17.603453 36.5 18.590625 36.5 19.640625 L 36.5 30.359375 C 36.5 31.409375 35.939109 32.396547 35.037109 32.935547 L 26.162109 38.236328 C 25.687109 38.519328 25.156 38.660156 24.625 38.660156 C 24.093 38.660156 23.562891 38.519328 23.087891 38.236328 L 14.212891 32.935547 C 13.310891 32.396547 12.75 31.409375 12.75 30.359375 L 12.75 19.640625 C 12.75 18.590625 13.310891 17.603453 14.212891 17.064453 L 23.087891 11.763672 C 23.562891 11.480672 24.09325 11.339844 24.625 11.339844 z M 24.625 13.337891 C 24.447 13.337891 24.270328 13.386469 24.111328 13.480469 L 15.236328 18.78125 C 14.935328 18.96125 14.75 19.289672 14.75 19.638672 L 14.75 30.359375 C 14.75 30.709375 14.936328 31.03975 15.236328 31.21875 L 24.111328 36.519531 C 24.427328 36.707531 24.820719 36.707531 25.136719 36.519531 L 34.011719 31.21875 C 34.312719 31.03875 34.498047 30.708375 34.498047 30.359375 L 34.498047 19.640625 C 34.499047 19.290625 34.313672 18.96125 34.013672 18.78125 L 25.138672 13.480469 C 24.980672 13.386469 24.803 13.337891 24.625 13.337891 z M 20.75 19 L 31 25 L 20.75 31 L 20.75 19 z"/></svg>